<?xml version="1.0" standalone="no"?>
<!DOCTYPE svg PUBLIC "-//W3C//DTD SVG 20010904//EN"
 "http://www.w3.org/TR/2001/REC-SVG-20010904/DTD/svg10.dtd">
<svg version="1.0" xmlns="http://www.w3.org/2000/svg"
 width="512.000000pt" height="512.000000pt" viewBox="0 0 512.000000 512.000000"
 preserveAspectRatio="xMidYMid meet">
<metadata>
Created by potrace 1.14, written by Peter Selinger 2001-2017
</metadata>
<g transform="translate(0.000000,512.000000) scale(0.100000,-0.100000)"
fill="#000000" stroke="none">
<path d="M2495 4705 c-37 -15 -70 -51 -84 -88 -6 -16 -11 -104 -11 -206 l0
-177 -97 -18 c-611 -114 -1069 -589 -1169 -1211 -11 -71 -13 -174 -13 -811
l-1 -671 -45 -6 c-100 -14 -199 -88 -245 -183 -23 -46 -25 -62 -28 -251 l-4
-203 641 0 c603 0 641 -1 642 -17 1 -10 1 -22 0 -26 -1 -5 5 -36 14 -69 54
-210 228 -354 440 -364 275 -13 487 184 505 469 0 4 288 7 641 7 l641 0 -4
203 c-3 188 -5 205 -27 251 -47 95 -142 166 -242 181 -24 4 -45 8 -46 9 -1 1
-3 323 -6 716 -2 393 -7 729 -11 745 -4 17 -14 62 -22 101 -14 68 -45 175 -63
219 -41 96 -122 245 -174 317 -234 325 -570 534 -969 602 l-38 7 0 180 c0 204
-7 230 -68 277 -40 30 -109 38 -157 17z"/>
</g>
</svg>
